<svg width="50" height="50" viewBox="0 0 50 50" fill="none" xmlns="http://www.w3.org/2000/svg">
<g filter="url(#filter0_d)">
<path d="M37.8292 17.2092H22.7906V2.17054C22.7906 1.48546 21.8604 0 19.9999 0C18.1395 0 17.2092 1.48555 17.2092 2.17054V17.2093H2.17054C1.48554 17.2092 0 18.1395 0 19.9998C0 21.8602 1.48554 22.7906 2.17054 22.7906H17.2093V37.8293C17.2093 38.5142 18.1395 39.9999 20 39.9999C21.8605 39.9999 22.7907 38.5142 22.7907 37.8293V22.7906H37.8295C38.5144 22.7906 40 21.8604 40 19.9998C40 18.1393 38.5142 17.2092 37.8292 17.2092Z" fill="white"/>
</g>
<defs>
<filter id="filter0_d" x="0" y="0" width="50" height="49.9999" filterUnits="userSpaceOnUse" color-interpolation-filters="sRGB">
<feFlood flood-opacity="0" result="BackgroundImageFix"/>
<feColorMatrix in="SourceAlpha" type="matrix" values="0 0 0 0 0 0 0 0 0 0 0 0 0 0 0 0 0 0 127 0"/>
<feOffset dx="5" dy="5"/>
<feGaussianBlur stdDeviation="2.5"/>
<feColorMatrix type="matrix" values="0 0 0 0 0 0 0 0 0 0 0 0 0 0 0 0 0 0 0.25 0"/>
<feBlend mode="normal" in2="BackgroundImageFix" result="effect1_dropShadow"/>
<feBlend mode="normal" in="SourceGraphic" in2="effect1_dropShadow" result="shape"/>
</filter>
</defs>
</svg>
