<svg width="51" height="48" viewBox="0 0 51 48" fill="none" xmlns="http://www.w3.org/2000/svg">
<g filter="url(#filter0_d)">
<path d="M36.9712 12.3808C36.5114 9.64857 35.1585 7.15505 33.0895 5.2628C30.7905 3.15834 27.8018 2 24.6893 2C22.2842 2 19.941 2.6897 17.9338 3.98951C16.2626 5.06827 14.8744 6.52724 13.8929 8.24264C13.4684 8.16306 13.0263 8.11885 12.5842 8.11885C8.82624 8.11885 5.76681 11.1783 5.76681 14.9362C5.76681 15.4226 5.81986 15.8912 5.90829 16.351C3.47666 18.1195 2 20.9667 2 23.9996C2 26.4489 2.91075 28.8275 4.5731 30.7109C6.27966 32.6385 8.53444 33.7791 10.9395 33.9118C10.9661 33.9118 10.9838 33.9118 11.0103 33.9118H18.6146C19.2778 33.9118 19.8083 33.3812 19.8083 32.7181C19.8083 32.0549 19.2778 31.5243 18.6146 31.5243H11.0457C7.42916 31.3033 4.38742 27.8636 4.38742 23.9907C4.38742 21.4884 5.73144 19.154 7.8978 17.8896C8.40181 17.5978 8.61402 16.9877 8.41949 16.4394C8.24265 15.9619 8.15423 15.4579 8.15423 14.9186C8.15423 12.4781 10.1437 10.4886 12.5842 10.4886C13.1059 10.4886 13.6188 10.577 14.0962 10.7538C14.6798 10.9661 15.3253 10.7008 15.5906 10.1437C17.2441 6.63335 20.8164 4.36973 24.6981 4.36973C29.9151 4.36973 34.2213 8.27801 34.7164 13.4596C34.7695 13.999 35.1762 14.4322 35.7068 14.5207C39.6416 15.1927 42.6126 18.8268 42.6126 22.9739C42.6126 27.3685 39.1553 31.1883 34.8933 31.5155H28.3765C27.7133 31.5155 27.1828 32.046 27.1828 32.7092C27.1828 33.3724 27.7133 33.9029 28.3765 33.9029H34.9375C34.964 33.9029 34.9905 33.9029 35.0259 33.9029C37.7228 33.7084 40.2429 32.4705 42.1174 30.4014C43.9831 28.35 45 25.715 45 22.9739C44.9912 18.0134 41.6046 13.6011 36.9712 12.3808Z" fill="white"/>
<path d="M30.6667 25.1314C31.1353 24.6628 31.1353 23.9112 30.6667 23.4425L24.3444 17.1203C24.1234 16.8992 23.8139 16.7666 23.5044 16.7666C23.1949 16.7666 22.8855 16.8904 22.6644 17.1203L16.3422 23.4425C15.8735 23.9112 15.8735 24.6628 16.3422 25.1314C16.5721 25.3613 16.8816 25.4851 17.1822 25.4851C17.4828 25.4851 17.7923 25.3701 18.0222 25.1314L22.3107 20.8429V40.5523C22.3107 41.2155 22.8413 41.746 23.5044 41.746C24.1676 41.746 24.6981 41.2155 24.6981 40.5523V20.8429L28.9866 25.1314C29.4464 25.6 30.198 25.6 30.6667 25.1314Z" fill="white"/>
</g>
<defs>
<filter id="filter0_d" x="0" y="0" width="51" height="47.746" filterUnits="userSpaceOnUse" color-interpolation-filters="sRGB">
<feFlood flood-opacity="0" result="BackgroundImageFix"/>
<feColorMatrix in="SourceAlpha" type="matrix" values="0 0 0 0 0 0 0 0 0 0 0 0 0 0 0 0 0 0 127 0"/>
<feOffset dx="2" dy="2"/>
<feGaussianBlur stdDeviation="2"/>
<feColorMatrix type="matrix" values="0 0 0 0 0 0 0 0 0 0 0 0 0 0 0 0 0 0 0.25 0"/>
<feBlend mode="normal" in2="BackgroundImageFix" result="effect1_dropShadow"/>
<feBlend mode="normal" in="SourceGraphic" in2="effect1_dropShadow" result="shape"/>
</filter>
</defs>
</svg>
